<svg width="40" height="30" viewBox="0 0 40 30" fill="none" xmlns="http://www.w3.org/2000/svg" xmlns:xlink="http://www.w3.org/1999/xlink">
<path d="M1.667,14L0.549,13.441C0.373,13.793 0.373,14.207 0.549,14.559L1.667,14ZM38.333,14L39.451,14.559C39.627,14.207 39.627,13.793 39.451,13.441L38.333,14ZM1.667,14C2.785,14.559 2.784,14.559 2.784,14.56C2.784,14.56 2.784,14.56 2.784,14.56C2.784,14.56 2.784,14.56 2.784,14.56C2.785,14.559 2.785,14.558 2.786,14.556C2.789,14.551 2.792,14.544 2.798,14.533C2.809,14.512 2.826,14.479 2.849,14.435C2.896,14.346 2.968,14.212 3.065,14.04C3.259,13.695 3.552,13.196 3.941,12.595C4.719,11.39 5.872,9.787 7.37,8.188C10.39,4.967 14.666,1.917 20,1.917L20,-0.583C13.667,-0.583 8.776,3.033 5.546,6.478C3.92,8.213 2.677,9.943 1.841,11.238C1.422,11.887 1.102,12.43 0.886,12.814C0.778,13.006 0.696,13.159 0.639,13.266C0.611,13.319 0.59,13.361 0.574,13.39C0.567,13.405 0.561,13.417 0.557,13.425C0.554,13.429 0.553,13.433 0.551,13.435C0.551,13.437 0.55,13.438 0.55,13.439C0.549,13.439 0.549,13.44 0.549,13.44C0.549,13.441 0.549,13.441 1.667,14ZM20,1.917C25.334,1.917 29.61,4.967 32.63,8.188C34.128,9.787 35.281,11.39 36.059,12.595C36.448,13.196 36.74,13.695 36.935,14.04C37.032,14.212 37.104,14.346 37.151,14.435C37.174,14.479 37.191,14.512 37.202,14.533C37.207,14.544 37.211,14.551 37.213,14.556C37.215,14.558 37.215,14.559 37.216,14.56C37.216,14.56 37.216,14.56 37.216,14.56C37.216,14.56 37.216,14.56 37.216,14.56C37.215,14.559 37.215,14.559 38.333,14C39.451,13.441 39.451,13.441 39.451,13.44C39.451,13.44 39.45,13.439 39.45,13.439C39.45,13.438 39.449,13.437 39.449,13.435C39.447,13.433 39.445,13.429 39.443,13.425C39.439,13.417 39.433,13.405 39.425,13.39C39.41,13.361 39.389,13.319 39.36,13.266C39.304,13.159 39.222,13.006 39.113,12.814C38.897,12.43 38.578,11.887 38.159,11.238C37.323,9.943 36.08,8.213 34.454,6.478C31.223,3.033 26.333,-0.583 20,-0.583L20,1.917ZM38.333,14C37.215,13.441 37.215,13.441 37.216,13.44C37.216,13.44 37.216,13.44 37.216,13.44C37.216,13.44 37.216,13.44 37.216,13.44C37.215,13.441 37.215,13.442 37.213,13.444C37.211,13.449 37.207,13.456 37.202,13.467C37.191,13.488 37.174,13.521 37.151,13.565C37.104,13.654 37.032,13.788 36.935,13.96C36.74,14.305 36.448,14.804 36.059,15.405C35.281,16.61 34.128,18.213 32.63,19.812C29.61,23.033 25.334,26.083 20,26.083L20,28.583C26.333,28.583 31.223,24.967 34.454,21.522C36.08,19.787 37.323,18.057 38.159,16.761C38.578,16.113 38.897,15.57 39.113,15.186C39.222,14.994 39.304,14.841 39.36,14.734C39.389,14.681 39.41,14.639 39.425,14.61C39.433,14.595 39.439,14.583 39.443,14.575C39.445,14.571 39.447,14.567 39.449,14.565C39.449,14.563 39.45,14.562 39.45,14.561C39.45,14.561 39.451,14.56 39.451,14.56C39.451,14.559 39.451,14.559 38.333,14ZM20,26.083C14.666,26.083 10.39,23.033 7.37,19.812C5.872,18.213 4.719,16.61 3.941,15.405C3.552,14.804 3.259,14.305 3.065,13.96C2.968,13.788 2.896,13.654 2.849,13.565C2.826,13.521 2.809,13.488 2.798,13.467C2.792,13.456 2.789,13.449 2.786,13.444C2.785,13.442 2.785,13.441 2.784,13.44C2.784,13.44 2.784,13.44 2.784,13.44C2.784,13.44 2.784,13.44 2.784,13.44C2.784,13.441 2.785,13.441 1.667,14C0.549,14.559 0.549,14.559 0.549,14.56C0.549,14.56 0.549,14.561 0.55,14.561C0.55,14.562 0.551,14.563 0.551,14.565C0.553,14.567 0.554,14.571 0.557,14.575C0.561,14.583 0.567,14.595 0.574,14.61C0.59,14.639 0.611,14.681 0.639,14.734C0.696,14.841 0.778,14.994 0.886,15.186C1.102,15.57 1.422,16.113 1.841,16.761C2.677,18.057 3.92,19.787 5.546,21.522C8.776,24.967 13.667,28.583 20,28.583L20,26.083ZM23.75,14C23.75,16.071 22.071,17.75 20,17.75L20,20.25C23.452,20.25 26.25,17.452 26.25,14L23.75,14ZM20,17.75C17.929,17.75 16.25,16.071 16.25,14L13.75,14C13.75,17.452 16.548,20.25 20,20.25L20,17.75ZM16.25,14C16.25,11.929 17.929,10.25 20,10.25L20,7.75C16.548,7.75 13.75,10.548 13.75,14L16.25,14ZM20,10.25C22.071,10.25 23.75,11.929 23.75,14L26.25,14C26.25,10.548 23.452,7.75 20,7.75L20,10.25Z" fill="#808187"/>
</svg>
