<svg width="34" height="34" viewBox="0 0 34 34" fill="none" xmlns="http://www.w3.org/2000/svg" xmlns:xlink="http://www.w3.org/1999/xlink">
<path d="M30.116,32.884C30.604,33.372 31.396,33.372 31.884,32.884C32.372,32.396 32.372,31.604 31.884,31.116L30.116,32.884ZM24.634,23.866C24.146,23.378 23.354,23.378 22.866,23.866C22.378,24.354 22.378,25.146 22.866,25.634L24.634,23.866ZM26.417,15.333C26.417,22.007 21.007,27.417 14.333,27.417L14.333,29.917C22.387,29.917 28.917,23.387 28.917,15.333L26.417,15.333ZM14.333,27.417C7.66,27.417 2.25,22.007 2.25,15.333L-0.25,15.333C-0.25,23.387 6.279,29.917 14.333,29.917L14.333,27.417ZM2.25,15.333C2.25,8.66 7.66,3.25 14.333,3.25L14.333,0.75C6.279,0.75 -0.25,7.279 -0.25,15.333L2.25,15.333ZM14.333,3.25C21.007,3.25 26.417,8.66 26.417,15.333L28.917,15.333C28.917,7.279 22.387,0.75 14.333,0.75L14.333,3.25ZM31.884,31.116L24.634,23.866L22.866,25.634L30.116,32.884L31.884,31.116Z" fill="#808187"/>
</svg>
