<svg width="40" height="40" viewBox="0 0 40 40" fill="none" xmlns="http://www.w3.org/2000/svg" xmlns:xlink="http://www.w3.org/1999/xlink">
<path d="M29.9,28.9L30.658,29.894C30.944,29.675 31.123,29.344 31.147,28.984C31.171,28.624 31.039,28.271 30.784,28.016L29.9,28.9ZM20,32.333L20,33.583L20.02,33.583L20,32.333ZM1.667,19L0.565,18.409C0.373,18.767 0.367,19.196 0.548,19.559L1.667,19ZM10.1,9.1L10.984,8.216C10.541,7.773 9.839,7.727 9.341,8.107L10.1,9.1ZM16.215,4.85C15.543,5.007 15.125,5.679 15.283,6.352C15.44,7.024 16.112,7.441 16.785,7.284L16.215,4.85ZM20,5.667L19.997,6.917L20,6.917L20,5.667ZM38.333,19L39.435,19.589C39.627,19.232 39.632,18.804 39.451,18.441L38.333,19ZM33.777,23.512C33.332,24.04 33.4,24.829 33.928,25.273C34.456,25.718 35.245,25.65 35.69,25.121L33.777,23.512ZM24.448,23.385C24.918,22.88 24.89,22.089 24.385,21.619C23.88,21.148 23.089,21.176 22.619,21.681L24.448,23.385ZM17.319,16.381C17.824,15.911 17.852,15.12 17.381,14.615C16.91,14.109 16.119,14.082 15.614,14.552L17.319,16.381ZM2.55,-0.217C2.062,-0.705 1.271,-0.705 0.783,-0.217C0.294,0.271 0.294,1.063 0.783,1.551L2.55,-0.217ZM37.449,38.217C37.937,38.705 38.729,38.705 39.217,38.217C39.705,37.729 39.705,36.938 39.217,36.449L37.449,38.217ZM29.142,27.906C26.505,29.916 23.294,31.029 19.979,31.083L20.02,33.583C23.869,33.52 27.596,32.227 30.658,29.894L29.142,27.906ZM20,31.083C14.666,31.083 10.39,28.033 7.37,24.812C5.871,23.213 4.719,21.61 3.941,20.405C3.552,19.804 3.259,19.305 3.065,18.96C2.968,18.788 2.896,18.654 2.849,18.565C2.826,18.521 2.808,18.488 2.798,18.467C2.792,18.456 2.788,18.449 2.786,18.444C2.785,18.442 2.785,18.441 2.784,18.44C2.784,18.44 2.784,18.44 2.784,18.44C2.784,18.44 2.784,18.44 2.784,18.44C2.784,18.441 2.785,18.441 1.667,19C0.548,19.559 0.549,19.559 0.549,19.56C0.549,19.56 0.549,19.561 0.55,19.561C0.55,19.562 0.551,19.563 0.551,19.565C0.553,19.567 0.554,19.571 0.556,19.575C0.561,19.583 0.567,19.595 0.574,19.61C0.589,19.639 0.611,19.681 0.639,19.734C0.696,19.841 0.778,19.994 0.886,20.186C1.102,20.57 1.421,21.113 1.84,21.761C2.677,23.057 3.92,24.787 5.546,26.522C8.776,29.967 13.667,33.583 20,33.583L20,31.083ZM2.768,19.591C4.757,15.885 7.515,12.646 10.858,10.094L9.341,8.107C5.715,10.876 2.722,14.388 0.565,18.409L2.768,19.591ZM9.216,9.984L29.016,29.784L30.784,28.016L10.984,8.216L9.216,9.984ZM16.785,7.284C17.838,7.037 18.915,6.914 19.997,6.917L20.003,4.417C18.728,4.414 17.456,4.559 16.215,4.85L16.785,7.284ZM20,6.917C25.334,6.917 29.61,9.967 32.629,13.188C34.128,14.787 35.281,16.39 36.059,17.595C36.447,18.196 36.74,18.695 36.934,19.04C37.031,19.212 37.104,19.346 37.15,19.435C37.174,19.479 37.191,19.512 37.202,19.533C37.207,19.544 37.211,19.551 37.213,19.556C37.214,19.558 37.215,19.559 37.215,19.56C37.215,19.56 37.216,19.56 37.215,19.56C37.215,19.56 37.215,19.56 37.215,19.56C37.215,19.559 37.215,19.559 38.333,19C39.451,18.441 39.451,18.441 39.451,18.44C39.45,18.44 39.45,18.439 39.45,18.439C39.45,18.438 39.449,18.437 39.448,18.435C39.447,18.433 39.445,18.429 39.443,18.425C39.439,18.417 39.433,18.405 39.425,18.39C39.41,18.361 39.388,18.319 39.36,18.266C39.304,18.159 39.221,18.006 39.113,17.814C38.897,17.43 38.578,16.887 38.159,16.239C37.323,14.943 36.08,13.213 34.453,11.478C31.223,8.033 26.333,4.417 20,4.417L20,6.917ZM37.231,18.411C36.26,20.227 35.102,21.936 33.777,23.512L35.69,25.121C37.127,23.413 38.383,21.559 39.435,19.589L37.231,18.411ZM22.619,21.681C22.275,22.05 21.861,22.345 21.401,22.55L22.419,24.834C23.185,24.492 23.875,24 24.448,23.385L22.619,21.681ZM21.401,22.55C20.941,22.755 20.445,22.865 19.941,22.874L19.985,25.374C20.824,25.359 21.652,25.175 22.419,24.834L21.401,22.55ZM19.941,22.874C19.438,22.883 18.938,22.79 18.471,22.602L17.534,24.92C18.313,25.234 19.146,25.389 19.985,25.374L19.941,22.874ZM18.471,22.602C18.004,22.413 17.579,22.132 17.223,21.776L15.456,23.544C16.049,24.138 16.756,24.605 17.534,24.92L18.471,22.602ZM17.223,21.776C16.867,21.42 16.587,20.996 16.398,20.529L14.08,21.465C14.394,22.244 14.862,22.951 15.456,23.544L17.223,21.776ZM16.398,20.529C16.209,20.062 16.117,19.562 16.126,19.059L13.626,19.014C13.611,19.854 13.766,20.687 14.08,21.465L16.398,20.529ZM16.126,19.059C16.134,18.555 16.245,18.058 16.45,17.598L14.166,16.581C13.825,17.348 13.641,18.175 13.626,19.014L16.126,19.059ZM16.45,17.598C16.655,17.138 16.95,16.724 17.319,16.381L15.614,14.552C15,15.124 14.508,15.814 14.166,16.581L16.45,17.598ZM0.783,1.551L37.449,38.217L39.217,36.449L2.55,-0.217L0.783,1.551Z" fill="#121826"/>
</svg>
