<svg width="48" height="48" viewBox="0 0 48 48" fill="none" xmlns="http://www.w3.org/2000/svg" xmlns:xlink="http://www.w3.org/1999/xlink">
<path d="M24.24,24.56L24.028,26.045C24.115,26.057 24.204,26.062 24.292,26.059L24.24,24.56ZM23.76,24.56L23.709,26.059C23.789,26.062 23.868,26.058 23.946,26.048L23.76,24.56ZM30.56,18.02L32.06,18.028L32.06,18.02L30.56,18.02ZM24.453,23.075C24.164,23.034 23.849,23.037 23.574,23.072L23.946,26.048C23.961,26.047 23.983,26.045 24.008,26.045C24.019,26.045 24.028,26.045 24.033,26.046C24.039,26.046 24.037,26.046 24.028,26.045L24.453,23.075ZM23.812,23.061C21.097,22.968 18.94,20.749 18.94,18.02L15.94,18.02C15.94,22.371 19.384,25.912 23.709,26.059L23.812,23.061ZM18.94,18.02C18.94,15.225 21.192,12.96 24,12.96L24,9.96C19.529,9.96 15.94,13.575 15.94,18.02L18.94,18.02ZM24,12.96C26.792,12.96 29.06,15.228 29.06,18.02L32.06,18.02C32.06,13.572 28.449,9.96 24,9.96L24,12.96ZM29.06,18.011C29.045,20.755 26.896,22.969 24.189,23.061L24.292,26.059C28.625,25.911 32.036,22.365 32.06,18.028L29.06,18.011Z" fill="#121826"/>
<path d="M37.48,37.76L38.493,38.866C38.844,38.545 39.022,38.075 38.971,37.601L37.48,37.76ZM10.52,37.76L9.028,37.601C8.978,38.075 9.155,38.545 9.507,38.866L10.52,37.76ZM14.06,32.6L13.23,31.351L13.222,31.356L14.06,32.6ZM33.94,32.6L34.777,31.356L34.774,31.353L33.94,32.6ZM36.467,36.654C33.172,39.671 28.81,41.5 24,41.5L24,44.5C29.589,44.5 34.667,42.369 38.493,38.866L36.467,36.654ZM24,41.5C19.189,41.5 14.827,39.671 11.533,36.654L9.507,38.866C13.332,42.369 18.41,44.5 24,44.5L24,41.5ZM12.011,37.919C12.153,36.589 13.022,35.106 14.897,33.845L13.222,31.356C10.817,32.974 9.287,35.171 9.028,37.601L12.011,37.919ZM14.889,33.85C17.332,32.227 20.637,31.37 24.015,31.37C27.393,31.37 30.685,32.227 33.105,33.847L34.774,31.353C31.754,29.333 27.846,28.37 24.015,28.37C20.182,28.37 16.267,29.333 13.23,31.351L14.889,33.85ZM33.102,33.845C34.977,35.106 35.847,36.589 35.988,37.919L38.971,37.601C38.713,35.171 37.182,32.974 34.777,31.356L33.102,33.845Z" fill="#121826"/>
<path d="M42.5,23C42.5,33.217 34.217,41.5 24,41.5L24,44.5C35.874,44.5 45.5,34.874 45.5,23L42.5,23ZM24,41.5C13.783,41.5 5.5,33.217 5.5,23L2.5,23C2.5,34.874 12.126,44.5 24,44.5L24,41.5ZM5.5,23C5.5,12.783 13.783,4.5 24,4.5L24,1.5C12.126,1.5 2.5,11.126 2.5,23L5.5,23ZM24,4.5C34.217,4.5 42.5,12.783 42.5,23L45.5,23C45.5,11.126 35.874,1.5 24,1.5L24,4.5Z" fill="#121826"/>
</svg>
