<svg width="48" height="50" viewBox="0 0 48 50" fill="none" xmlns="http://www.w3.org/2000/svg" xmlns:xlink="http://www.w3.org/1999/xlink">
<path d="M24.24,26.56L24.028,28.045C24.115,28.057 24.204,28.062 24.292,28.059L24.24,26.56ZM23.76,26.56L23.709,28.059C23.789,28.062 23.868,28.058 23.946,28.048L23.76,26.56ZM30.56,20.02L32.06,20.028L32.06,20.02L30.56,20.02ZM24.453,25.075C24.164,25.034 23.849,25.037 23.574,25.072L23.946,28.048C23.961,28.047 23.983,28.045 24.008,28.045C24.019,28.045 24.028,28.045 24.033,28.046C24.039,28.046 24.037,28.046 24.028,28.045L24.453,25.075ZM23.812,25.061C21.097,24.968 18.94,22.749 18.94,20.02L15.94,20.02C15.94,24.371 19.384,27.912 23.709,28.059L23.812,25.061ZM18.94,20.02C18.94,17.225 21.192,14.96 24,14.96L24,11.96C19.529,11.96 15.94,15.575 15.94,20.02L18.94,20.02ZM24,14.96C26.792,14.96 29.06,17.228 29.06,20.02L32.06,20.02C32.06,15.572 28.449,11.96 24,11.96L24,14.96ZM29.06,20.012C29.045,22.755 26.896,24.969 24.189,25.061L24.292,28.059C28.625,27.911 32.036,24.365 32.06,20.028L29.06,20.012Z" fill="#121826"/>
<path d="M37.48,39.76L38.493,40.866C38.844,40.545 39.022,40.075 38.971,39.601L37.48,39.76ZM10.52,39.76L9.028,39.601C8.978,40.075 9.155,40.545 9.507,40.866L10.52,39.76ZM14.06,34.6L13.23,33.35L13.222,33.356L14.06,34.6ZM33.94,34.6L34.777,33.356L34.774,33.353L33.94,34.6ZM36.467,38.654C33.172,41.671 28.81,43.5 24,43.5L24,46.5C29.589,46.5 34.667,44.369 38.493,40.866L36.467,38.654ZM24,43.5C19.189,43.5 14.827,41.671 11.533,38.654L9.507,40.866C13.332,44.369 18.41,46.5 24,46.5L24,43.5ZM12.011,39.919C12.153,38.589 13.022,37.106 14.897,35.844L13.222,33.356C10.817,34.974 9.287,37.171 9.028,39.601L12.011,39.919ZM14.889,35.849C17.332,34.227 20.637,33.37 24.015,33.37C27.393,33.37 30.685,34.227 33.105,35.847L34.774,33.353C31.754,31.333 27.846,30.37 24.015,30.37C20.182,30.37 16.267,31.333 13.23,33.351L14.889,35.849ZM33.102,35.844C34.977,37.106 35.847,38.589 35.988,39.919L38.971,39.601C38.713,37.171 37.182,34.974 34.777,33.356L33.102,35.844Z" fill="#121826"/>
<path d="M42.5,25C42.5,35.217 34.217,43.5 24,43.5L24,46.5C35.874,46.5 45.5,36.874 45.5,25L42.5,25ZM24,43.5C13.783,43.5 5.5,35.217 5.5,25L2.5,25C2.5,36.874 12.126,46.5 24,46.5L24,43.5ZM5.5,25C5.5,14.783 13.783,6.5 24,6.5L24,3.5C12.126,3.5 2.5,13.126 2.5,25L5.5,25ZM24,6.5C34.217,6.5 42.5,14.783 42.5,25L45.5,25C45.5,13.126 35.874,3.5 24,3.5L24,6.5Z" fill="#121826"/>
</svg>
