<svg width="48" height="48" viewBox="0 0 48 48" fill="none" xmlns="http://www.w3.org/2000/svg" xmlns:xlink="http://www.w3.org/1999/xlink">
<path d="M4,1.5C3.172,1.5 2.5,2.172 2.5,3C2.5,3.828 3.172,4.5 4,4.5L4,1.5ZM11.16,7L9.665,6.874L9.665,6.875L11.16,7ZM9.5,26.92L10.994,27.048L10.995,27.045L9.5,26.92ZM42,27.76L43.496,27.875L43.496,27.868L42,27.76ZM43.08,12.76L41.584,12.652L41.584,12.652L43.08,12.76ZM11.64,5.24C10.812,5.24 10.14,5.912 10.14,6.74C10.14,7.568 10.812,8.24 11.64,8.24L11.64,5.24ZM4,4.5L7.48,4.5L7.48,1.5L4,1.5L4,4.5ZM7.48,4.5C8.76,4.5 9.772,5.607 9.665,6.874L12.655,7.126C12.908,4.113 10.52,1.5 7.48,1.5L7.48,4.5ZM9.665,6.875L8.005,26.795L10.995,27.045L12.655,7.125L9.665,6.875ZM8.006,26.792C7.65,30.933 10.926,34.48 15.08,34.48L15.08,31.48C12.674,31.48 10.79,29.427 10.994,27.048L8.006,26.792ZM15.08,34.48L36.38,34.48L36.38,31.48L15.08,31.48L15.08,34.48ZM36.38,34.48C40.051,34.48 43.216,31.509 43.496,27.875L40.504,27.645C40.344,29.731 38.469,31.48 36.38,31.48L36.38,34.48ZM43.496,27.868L44.576,12.868L41.584,12.652L40.504,27.652L43.496,27.868ZM44.576,12.868C44.879,8.674 41.666,5.24 37.46,5.24L37.46,8.24C39.934,8.24 41.761,10.206 41.584,12.652L44.576,12.868ZM37.46,5.24L11.64,5.24L11.64,8.24L37.46,8.24L37.46,5.24Z" fill="#121826"/>
<path d="M33.5,40.5C33.5,41.052 33.052,41.5 32.5,41.5L32.5,44.5C34.709,44.5 36.5,42.709 36.5,40.5L33.5,40.5ZM32.5,41.5C31.948,41.5 31.5,41.052 31.5,40.5L28.5,40.5C28.5,42.709 30.291,44.5 32.5,44.5L32.5,41.5ZM31.5,40.5C31.5,39.948 31.948,39.5 32.5,39.5L32.5,36.5C30.291,36.5 28.5,38.291 28.5,40.5L31.5,40.5ZM32.5,39.5C33.052,39.5 33.5,39.948 33.5,40.5L36.5,40.5C36.5,38.291 34.709,36.5 32.5,36.5L32.5,39.5Z" fill="#121826"/>
<path d="M17.5,40.5C17.5,41.052 17.052,41.5 16.5,41.5L16.5,44.5C18.709,44.5 20.5,42.709 20.5,40.5L17.5,40.5ZM16.5,41.5C15.948,41.5 15.5,41.052 15.5,40.5L12.5,40.5C12.5,42.709 14.291,44.5 16.5,44.5L16.5,41.5ZM15.5,40.5C15.5,39.948 15.948,39.5 16.5,39.5L16.5,36.5C14.291,36.5 12.5,38.291 12.5,40.5L15.5,40.5ZM16.5,39.5C17.052,39.5 17.5,39.948 17.5,40.5L20.5,40.5C20.5,38.291 18.709,36.5 16.5,36.5L16.5,39.5Z" fill="#121826"/>
<line x1="18" y1="13.5" x2="42" y2="13.5" stroke="#121826" stroke-width="1.5" stroke-miterlimit="10" stroke-linecap="round" stroke-linejoin="round"/>
</svg>
