<svg width="48" height="50" viewBox="0 0 48 50" fill="none" xmlns="http://www.w3.org/2000/svg" xmlns:xlink="http://www.w3.org/1999/xlink">
<path d="M4,3.5C3.172,3.5 2.5,4.172 2.5,5C2.5,5.828 3.172,6.5 4,6.5L4,3.5ZM11.16,9L9.665,8.874L9.665,8.875L11.16,9ZM9.5,28.92L10.995,29.048L10.995,29.045L9.5,28.92ZM42,29.76L43.496,29.875L43.496,29.868L42,29.76ZM43.08,14.76L41.584,14.652L41.584,14.652L43.08,14.76ZM11.64,7.24C10.812,7.24 10.14,7.912 10.14,8.74C10.14,9.568 10.812,10.24 11.64,10.24L11.64,7.24ZM4,6.5L7.48,6.5L7.48,3.5L4,3.5L4,6.5ZM7.48,6.5C8.76,6.5 9.772,7.607 9.665,8.874L12.655,9.126C12.908,6.113 10.52,3.5 7.48,3.5L7.48,6.5ZM9.665,8.875L8.005,28.795L10.995,29.045L12.655,9.125L9.665,8.875ZM8.005,28.792C7.65,32.933 10.926,36.48 15.08,36.48L15.08,33.48C12.674,33.48 10.79,31.427 10.995,29.048L8.005,28.792ZM15.08,36.48L36.38,36.48L36.38,33.48L15.08,33.48L15.08,36.48ZM36.38,36.48C40.051,36.48 43.216,33.509 43.496,29.875L40.504,29.645C40.344,31.731 38.469,33.48 36.38,33.48L36.38,36.48ZM43.496,29.868L44.576,14.868L41.584,14.652L40.504,29.652L43.496,29.868ZM44.576,14.868C44.879,10.674 41.666,7.24 37.46,7.24L37.46,10.24C39.934,10.24 41.761,12.206 41.584,14.652L44.576,14.868ZM37.46,7.24L11.64,7.24L11.64,10.24L37.46,10.24L37.46,7.24Z" fill="#121826"/>
<path d="M33.5,42.5C33.5,43.052 33.052,43.5 32.5,43.5L32.5,46.5C34.709,46.5 36.5,44.709 36.5,42.5L33.5,42.5ZM32.5,43.5C31.948,43.5 31.5,43.052 31.5,42.5L28.5,42.5C28.5,44.709 30.291,46.5 32.5,46.5L32.5,43.5ZM31.5,42.5C31.5,41.948 31.948,41.5 32.5,41.5L32.5,38.5C30.291,38.5 28.5,40.291 28.5,42.5L31.5,42.5ZM32.5,41.5C33.052,41.5 33.5,41.948 33.5,42.5L36.5,42.5C36.5,40.291 34.709,38.5 32.5,38.5L32.5,41.5Z" fill="#121826"/>
<path d="M17.5,42.5C17.5,43.052 17.052,43.5 16.5,43.5L16.5,46.5C18.709,46.5 20.5,44.709 20.5,42.5L17.5,42.5ZM16.5,43.5C15.948,43.5 15.5,43.052 15.5,42.5L12.5,42.5C12.5,44.709 14.291,46.5 16.5,46.5L16.5,43.5ZM15.5,42.5C15.5,41.948 15.948,41.5 16.5,41.5L16.5,38.5C14.291,38.5 12.5,40.291 12.5,42.5L15.5,42.5ZM16.5,41.5C17.052,41.5 17.5,41.948 17.5,42.5L20.5,42.5C20.5,40.291 18.709,38.5 16.5,38.5L16.5,41.5Z" fill="#121826"/>
<line x1="18" y1="15.5" x2="42" y2="15.5" stroke="#121826" stroke-width="1.5" stroke-miterlimit="10" stroke-linecap="round" stroke-linejoin="round"/>
</svg>
