<svg width="50" height="48" viewBox="0 0 50 48" fill="none" xmlns="http://www.w3.org/2000/svg" xmlns:xlink="http://www.w3.org/1999/xlink">
<path d="M24,0C10.745,0 0,10.745 0,24C0,35.255 7.749,44.7 18.203,47.293L18.203,31.334L13.254,31.334L13.254,24L18.203,24L18.203,20.84C18.203,12.671 21.9,8.885 29.919,8.885C31.44,8.885 34.064,9.183 35.137,9.481L35.137,16.129C34.571,16.069 33.587,16.04 32.364,16.04C28.429,16.04 26.909,17.531 26.909,21.406L26.909,24L34.748,24L33.401,31.334L26.909,31.334L26.909,47.824C38.793,46.389 48.001,36.271 48.001,24C48,10.745 37.255,0 24,0Z" fill="#404653"/>
</svg>
