<svg width="60" height="72" viewBox="0 0 60 72" fill="none" xmlns="http://www.w3.org/2000/svg" xmlns:xlink="http://www.w3.org/1999/xlink">
<path d="M12.857,0C5.759,0 0,6.047 0,13.5L0,58.5C0,65.953 5.759,72 12.857,72L51.429,72L55.714,72C58.085,72 60,69.989 60,67.5C60,65.011 58.085,63 55.714,63L55.714,54C58.085,54 60,51.989 60,49.5L60,4.5C60,2.011 58.085,0 55.714,0L51.429,0L12.857,0ZM12.857,54L47.143,54L47.143,63L12.857,63C10.487,63 8.571,60.989 8.571,58.5C8.571,56.011 10.487,54 12.857,54ZM17.143,20.25C17.143,19.012 18.107,18 19.286,18L45,18C46.179,18 47.143,19.012 47.143,20.25C47.143,21.488 46.179,22.5 45,22.5L19.286,22.5C18.107,22.5 17.143,21.488 17.143,20.25ZM19.286,27L45,27C46.179,27 47.143,28.013 47.143,29.25C47.143,30.488 46.179,31.5 45,31.5L19.286,31.5C18.107,31.5 17.143,30.488 17.143,29.25C17.143,28.013 18.107,27 19.286,27Z" fill="#121826"/>
</svg>
