<svg width="48" height="48" viewBox="0 0 48 48" fill="none" xmlns="http://www.w3.org/2000/svg" xmlns:xlink="http://www.w3.org/1999/xlink">
<path d="M36.08,26.1L37.128,27.173C37.137,27.164 37.146,27.155 37.155,27.146L36.08,26.1ZM34.88,29.36L36.375,29.235L36.373,29.218L34.88,29.36ZM43,33.1L44.5,33.1C44.5,32.272 43.828,31.6 43,31.6L43,33.1ZM43,24.9L43,26.4C43.828,26.4 44.5,25.728 44.5,24.9L43,24.9ZM35.032,25.027C33.884,26.147 33.222,27.768 33.387,29.502L36.373,29.218C36.298,28.432 36.596,27.693 37.128,27.173L35.032,25.027ZM33.385,29.485C33.639,32.535 36.378,34.6 39.2,34.6L39.2,31.6C37.702,31.6 36.481,30.505 36.375,29.235L33.385,29.485ZM39.2,34.6L43,34.6L43,31.6L39.2,31.6L39.2,34.6ZM41.5,33.1L41.5,35.48L44.5,35.48L44.5,33.1L41.5,33.1ZM41.5,35.48C41.5,38.792 38.792,41.5 35.48,41.5L35.48,44.5C40.448,44.5 44.5,40.448 44.5,35.48L41.5,35.48ZM35.48,41.5L12.52,41.5L12.52,44.5L35.48,44.5L35.48,41.5ZM12.52,41.5C9.208,41.5 6.5,38.792 6.5,35.48L3.5,35.48C3.5,40.448 7.552,44.5 12.52,44.5L12.52,41.5ZM6.5,35.48L6.5,22.02L3.5,22.02L3.5,35.48L6.5,35.48ZM6.5,22.02C6.5,18.708 9.208,16 12.52,16L12.52,13C7.552,13 3.5,17.052 3.5,22.02L6.5,22.02ZM12.52,16L35.48,16L35.48,13L12.52,13L12.52,16ZM35.48,16C38.792,16 41.5,18.708 41.5,22.02L44.5,22.02C44.5,17.052 40.448,13 35.48,13L35.48,16ZM41.5,22.02L41.5,24.9L44.5,24.9L44.5,22.02L41.5,22.02ZM43,23.4L38.96,23.4L38.96,26.4L43,26.4L43,23.4ZM38.96,23.4C37.438,23.4 36.03,24.001 35.005,25.054L37.155,27.146C37.61,26.678 38.242,26.4 38.96,26.4L38.96,23.4Z" fill="#121826"/>
<path d="M3.5,23.82C3.5,24.648 4.172,25.32 5,25.32C5.828,25.32 6.5,24.648 6.5,23.82L3.5,23.82ZM8.68,9.34L8.15,7.937L8.149,7.937L8.68,9.34ZM24.56,3.34L25.09,4.743L25.092,4.743L24.56,3.34ZM28.2,14.5C28.2,15.328 28.872,16 29.7,16C30.528,16 31.2,15.328 31.2,14.5L28.2,14.5ZM6.5,23.82L6.5,14.68L3.5,14.68L3.5,23.82L6.5,23.82ZM6.5,14.68C6.5,12.921 7.577,11.361 9.211,10.743L8.149,7.937C5.343,8.999 3.5,11.679 3.5,14.68L6.5,14.68ZM9.21,10.743L25.09,4.743L24.03,1.937L8.15,7.937L9.21,10.743ZM25.092,4.743C26.586,4.176 28.2,5.285 28.2,6.9L31.2,6.9C31.2,3.195 27.494,0.624 24.028,1.937L25.092,4.743ZM28.2,6.9L28.2,14.5L31.2,14.5L31.2,6.9L28.2,6.9Z" fill="#121826"/>
<path d="M43.118,33.1L43.118,34.6C43.135,34.6 43.153,34.6 43.171,34.599L43.118,33.1ZM34.878,29.36L36.373,29.236L36.371,29.218L34.878,29.36ZM36.078,26.1L37.125,27.174C37.135,27.165 37.143,27.156 37.152,27.147L36.078,26.1ZM43.118,24.9L43.171,23.401C43.153,23.401 43.135,23.4 43.118,23.4L43.118,24.9ZM43.618,26.94L43.618,31.06L46.618,31.06L46.618,26.94L43.618,26.94ZM43.618,31.06C43.618,31.332 43.398,31.589 43.064,31.601L43.171,34.599C45.077,34.531 46.618,32.989 46.618,31.06L43.618,31.06ZM43.118,31.6L39.198,31.6L39.198,34.6L43.118,34.6L43.118,31.6ZM39.198,31.6C37.699,31.6 36.478,30.506 36.372,29.236L33.383,29.485C33.637,32.535 36.376,34.6 39.198,34.6L39.198,31.6ZM36.371,29.218C36.296,28.433 36.593,27.693 37.125,27.174L35.03,25.027C33.882,26.148 33.219,27.768 33.384,29.503L36.371,29.218ZM37.152,27.147C37.608,26.679 38.24,26.4 38.958,26.4L38.958,23.4C37.436,23.4 36.027,24.002 35.003,25.054L37.152,27.147ZM38.958,26.4L43.118,26.4L43.118,23.4L38.958,23.4L38.958,26.4ZM43.064,26.399C43.398,26.411 43.618,26.669 43.618,26.94L46.618,26.94C46.618,25.012 45.077,23.469 43.171,23.401L43.064,26.399Z" fill="#121826"/>
<line x1="14" y1="21.5" x2="28" y2="21.5" stroke="#121826" stroke-width="1.5" stroke-miterlimit="3.999327" stroke-linecap="round" stroke-linejoin="round"/>
</svg>
