<svg width="48" height="48" viewBox="0 0 48 48" fill="none" xmlns="http://www.w3.org/2000/svg" xmlns:xlink="http://www.w3.org/1999/xlink">
<path d="M35.08,27.1L36.128,28.173C36.137,28.164 36.146,28.155 36.155,28.146L35.08,27.1ZM33.88,30.36L35.375,30.235L35.373,30.218L33.88,30.36ZM42,34.1L43.5,34.1C43.5,33.272 42.828,32.6 42,32.6L42,34.1ZM42,25.9L42,27.4C42.828,27.4 43.5,26.728 43.5,25.9L42,25.9ZM34.032,26.027C32.884,27.147 32.222,28.768 32.387,30.502L35.373,30.218C35.298,29.432 35.596,28.693 36.128,28.173L34.032,26.027ZM32.385,30.485C32.639,33.535 35.378,35.6 38.2,35.6L38.2,32.6C36.702,32.6 35.481,31.505 35.375,30.235L32.385,30.485ZM38.2,35.6L42,35.6L42,32.6L38.2,32.6L38.2,35.6ZM40.5,34.1L40.5,36.48L43.5,36.48L43.5,34.1L40.5,34.1ZM40.5,36.48C40.5,39.792 37.792,42.5 34.48,42.5L34.48,45.5C39.448,45.5 43.5,41.448 43.5,36.48L40.5,36.48ZM34.48,42.5L11.52,42.5L11.52,45.5L34.48,45.5L34.48,42.5ZM11.52,42.5C8.208,42.5 5.5,39.792 5.5,36.48L2.5,36.48C2.5,41.448 6.552,45.5 11.52,45.5L11.52,42.5ZM5.5,36.48L5.5,23.02L2.5,23.02L2.5,36.48L5.5,36.48ZM5.5,23.02C5.5,19.708 8.208,17 11.52,17L11.52,14C6.552,14 2.5,18.052 2.5,23.02L5.5,23.02ZM11.52,17L34.48,17L34.48,14L11.52,14L11.52,17ZM34.48,17C37.792,17 40.5,19.708 40.5,23.02L43.5,23.02C43.5,18.052 39.448,14 34.48,14L34.48,17ZM40.5,23.02L40.5,25.9L43.5,25.9L43.5,23.02L40.5,23.02ZM42,24.4L37.96,24.4L37.96,27.4L42,27.4L42,24.4ZM37.96,24.4C36.438,24.4 35.03,25.001 34.005,26.054L36.155,28.146C36.61,27.678 37.242,27.4 37.96,27.4L37.96,24.4Z" fill="#121826"/>
<path d="M2.5,24.82C2.5,25.648 3.172,26.32 4,26.32C4.828,26.32 5.5,25.648 5.5,24.82L2.5,24.82ZM7.68,10.34L7.15,8.937L7.149,8.937L7.68,10.34ZM23.56,4.34L24.09,5.743L24.092,5.743L23.56,4.34ZM27.2,15.5C27.2,16.328 27.872,17 28.7,17C29.528,17 30.2,16.328 30.2,15.5L27.2,15.5ZM5.5,24.82L5.5,15.68L2.5,15.68L2.5,24.82L5.5,24.82ZM5.5,15.68C5.5,13.921 6.577,12.361 8.211,11.743L7.149,8.937C4.343,9.999 2.5,12.679 2.5,15.68L5.5,15.68ZM8.21,11.743L24.09,5.743L23.03,2.937L7.15,8.937L8.21,11.743ZM24.092,5.743C25.586,5.176 27.2,6.285 27.2,7.9L30.2,7.9C30.2,4.195 26.494,1.624 23.028,2.937L24.092,5.743ZM27.2,7.9L27.2,15.5L30.2,15.5L30.2,7.9L27.2,7.9Z" fill="#121826"/>
<path d="M42.118,34.1L42.118,35.6C42.135,35.6 42.153,35.6 42.171,35.599L42.118,34.1ZM33.878,30.36L35.373,30.236L35.371,30.218L33.878,30.36ZM35.078,27.1L36.125,28.174C36.135,28.165 36.143,28.156 36.152,28.147L35.078,27.1ZM42.118,25.9L42.171,24.401C42.153,24.401 42.135,24.4 42.118,24.4L42.118,25.9ZM42.618,27.94L42.618,32.06L45.618,32.06L45.618,27.94L42.618,27.94ZM42.618,32.06C42.618,32.332 42.398,32.589 42.064,32.601L42.171,35.599C44.077,35.531 45.618,33.989 45.618,32.06L42.618,32.06ZM42.118,32.6L38.198,32.6L38.198,35.6L42.118,35.6L42.118,32.6ZM38.198,32.6C36.699,32.6 35.478,31.506 35.372,30.236L32.383,30.485C32.637,33.535 35.376,35.6 38.198,35.6L38.198,32.6ZM35.371,30.218C35.296,29.433 35.593,28.693 36.125,28.174L34.03,26.027C32.882,27.148 32.219,28.768 32.384,30.503L35.371,30.218ZM36.152,28.147C36.608,27.679 37.24,27.4 37.958,27.4L37.958,24.4C36.436,24.4 35.027,25.002 34.003,26.054L36.152,28.147ZM37.958,27.4L42.118,27.4L42.118,24.4L37.958,24.4L37.958,27.4ZM42.064,27.399C42.398,27.411 42.618,27.669 42.618,27.94L45.618,27.94C45.618,26.012 44.077,24.469 42.171,24.401L42.064,27.399Z" fill="#121826"/>
<line x1="13" y1="22.5" x2="27" y2="22.5" stroke="#121826" stroke-width="1.5" stroke-miterlimit="3.999327" stroke-linecap="round" stroke-linejoin="round"/>
</svg>
