<svg width="48" height="50" viewBox="0 0 48 50" fill="none" xmlns="http://www.w3.org/2000/svg" xmlns:xlink="http://www.w3.org/1999/xlink">
<path d="M36.08,28.1L37.128,29.173C37.137,29.164 37.146,29.156 37.155,29.146L36.08,28.1ZM34.88,31.36L36.375,31.235L36.373,31.218L34.88,31.36ZM43,35.1L44.5,35.1C44.5,34.272 43.828,33.6 43,33.6L43,35.1ZM43,26.9L43,28.4C43.828,28.4 44.5,27.728 44.5,26.9L43,26.9ZM35.032,27.027C33.884,28.147 33.222,29.768 33.387,31.502L36.373,31.218C36.298,30.432 36.596,29.693 37.128,29.173L35.032,27.027ZM33.385,31.485C33.639,34.535 36.378,36.6 39.2,36.6L39.2,33.6C37.702,33.6 36.481,32.505 36.375,31.235L33.385,31.485ZM39.2,36.6L43,36.6L43,33.6L39.2,33.6L39.2,36.6ZM41.5,35.1L41.5,37.48L44.5,37.48L44.5,35.1L41.5,35.1ZM41.5,37.48C41.5,40.792 38.792,43.5 35.48,43.5L35.48,46.5C40.448,46.5 44.5,42.448 44.5,37.48L41.5,37.48ZM35.48,43.5L12.52,43.5L12.52,46.5L35.48,46.5L35.48,43.5ZM12.52,43.5C9.208,43.5 6.5,40.792 6.5,37.48L3.5,37.48C3.5,42.448 7.552,46.5 12.52,46.5L12.52,43.5ZM6.5,37.48L6.5,24.02L3.5,24.02L3.5,37.48L6.5,37.48ZM6.5,24.02C6.5,20.708 9.208,18 12.52,18L12.52,15C7.552,15 3.5,19.052 3.5,24.02L6.5,24.02ZM12.52,18L35.48,18L35.48,15L12.52,15L12.52,18ZM35.48,18C38.792,18 41.5,20.708 41.5,24.02L44.5,24.02C44.5,19.052 40.448,15 35.48,15L35.48,18ZM41.5,24.02L41.5,26.9L44.5,26.9L44.5,24.02L41.5,24.02ZM43,25.4L38.96,25.4L38.96,28.4L43,28.4L43,25.4ZM38.96,25.4C37.438,25.4 36.03,26.002 35.005,27.054L37.155,29.146C37.61,28.678 38.242,28.4 38.96,28.4L38.96,25.4Z" fill="#121826"/>
<path d="M3.5,25.82C3.5,26.648 4.172,27.32 5,27.32C5.828,27.32 6.5,26.648 6.5,25.82L3.5,25.82ZM8.68,11.34L8.15,9.937L8.149,9.937L8.68,11.34ZM24.56,5.34L25.09,6.743L25.092,6.743L24.56,5.34ZM28.2,16.5C28.2,17.328 28.872,18 29.7,18C30.528,18 31.2,17.328 31.2,16.5L28.2,16.5ZM6.5,25.82L6.5,16.68L3.5,16.68L3.5,25.82L6.5,25.82ZM6.5,16.68C6.5,14.921 7.577,13.361 9.211,12.743L8.149,9.937C5.343,10.999 3.5,13.679 3.5,16.68L6.5,16.68ZM9.21,12.743L25.09,6.743L24.03,3.937L8.15,9.937L9.21,12.743ZM25.092,6.743C26.586,6.176 28.2,7.285 28.2,8.9L31.2,8.9C31.2,5.195 27.494,2.624 24.028,3.937L25.092,6.743ZM28.2,8.9L28.2,16.5L31.2,16.5L31.2,8.9L28.2,8.9Z" fill="#121826"/>
<path d="M43.118,35.1L43.118,36.6C43.135,36.6 43.153,36.6 43.171,36.599L43.118,35.1ZM34.878,31.36L36.373,31.236L36.371,31.218L34.878,31.36ZM36.078,28.1L37.125,29.174C37.135,29.165 37.143,29.156 37.152,29.147L36.078,28.1ZM43.118,26.9L43.171,25.401C43.153,25.401 43.135,25.4 43.118,25.4L43.118,26.9ZM43.618,28.94L43.618,33.06L46.618,33.06L46.618,28.94L43.618,28.94ZM43.618,33.06C43.618,33.332 43.398,33.589 43.064,33.601L43.171,36.599C45.077,36.531 46.618,34.989 46.618,33.06L43.618,33.06ZM43.118,33.6L39.198,33.6L39.198,36.6L43.118,36.6L43.118,33.6ZM39.198,33.6C37.699,33.6 36.478,32.506 36.372,31.236L33.383,31.485C33.637,34.535 36.376,36.6 39.198,36.6L39.198,33.6ZM36.371,31.218C36.296,30.433 36.593,29.693 37.125,29.174L35.03,27.027C33.882,28.148 33.219,29.768 33.384,31.503L36.371,31.218ZM37.152,29.147C37.608,28.679 38.24,28.4 38.958,28.4L38.958,25.4C37.436,25.4 36.027,26.002 35.003,27.054L37.152,29.147ZM38.958,28.4L43.118,28.4L43.118,25.4L38.958,25.4L38.958,28.4ZM43.064,28.399C43.398,28.411 43.618,28.669 43.618,28.94L46.618,28.94C46.618,27.012 45.077,25.469 43.171,25.401L43.064,28.399Z" fill="#121826"/>
<line x1="14" y1="23.5" x2="28" y2="23.5" stroke="#121826" stroke-width="1.5" stroke-miterlimit="3.999327" stroke-linecap="round" stroke-linejoin="round"/>
</svg>
